<svg width="20" height="20" viewBox="0 0 20 20" fill="none" xmlns="http://www.w3.org/2000/svg">
<path d="M15.8346 11.1333H1.66797C1.3263 11.1333 1.04297 10.85 1.04297 10.5083C1.04297 10.1666 1.3263 9.8833 1.66797 9.8833H15.8346C16.1763 9.8833 16.4596 10.1666 16.4596 10.5083C16.4596 10.85 16.1763 11.1333 15.8346 11.1333Z" fill="#223B77"/>
<path d="M12.6846 18.125H4.81799C1.95966 18.125 1.04297 17.2167 1.04297 14.3917V8.56671C1.04297 6.32504 1.55132 5.00004 4.13465 4.85004C4.35132 4.84171 4.57633 4.83337 4.81799 4.83337H12.6846C15.5429 4.83337 16.4596 5.74171 16.4596 8.56671V14.525C16.4263 17.25 15.5096 18.125 12.6846 18.125ZM4.81799 6.08337C4.59299 6.08337 4.38466 6.09171 4.19299 6.10004C2.70133 6.19171 2.29297 6.50837 2.29297 8.56671V14.3917C2.29297 16.525 2.64299 16.875 4.81799 16.875H12.6846C14.8346 16.875 15.1846 16.5417 15.2096 14.5167V8.56671C15.2096 6.43337 14.8596 6.08337 12.6846 6.08337H4.81799Z" fill="#223B77"/>
<path d="M15.8346 15.15C15.6763 15.15 15.518 15.0917 15.4096 14.9833C15.2846 14.8667 15.2096 14.7 15.2096 14.525V8.56667C15.2096 6.43333 14.8596 6.08333 12.6846 6.08333H4.81799C4.59299 6.08333 4.38466 6.09167 4.19299 6.1C4.02633 6.10833 3.85962 6.04167 3.73462 5.925C3.60962 5.80833 3.54297 5.64167 3.54297 5.46667C3.5763 2.75 4.49299 1.875 7.31799 1.875H15.1846C18.0429 1.875 18.9596 2.78333 18.9596 5.60833V11.4333C18.9596 13.675 18.4513 15 15.868 15.15C15.8596 15.15 15.843 15.15 15.8346 15.15ZM4.81799 4.83333H12.6846C15.5429 4.83333 16.4596 5.74167 16.4596 8.56667V13.8333C17.4263 13.6583 17.7096 13.1583 17.7096 11.4333V5.60833C17.7096 3.475 17.3596 3.125 15.1846 3.125H7.31799C5.41799 3.125 4.92633 3.38333 4.81799 4.83333Z" fill="#223B77"/>
<path d="M5.80055 15.4667H4.36719C4.02552 15.4667 3.74219 15.1833 3.74219 14.8417C3.74219 14.5 4.02552 14.2167 4.36719 14.2167H5.80055C6.14221 14.2167 6.42555 14.5 6.42555 14.8417C6.42555 15.1833 6.15055 15.4667 5.80055 15.4667Z" fill="#223B77"/>
<path d="M10.4565 15.4667H7.58984C7.24818 15.4667 6.96484 15.1833 6.96484 14.8417C6.96484 14.5 7.24818 14.2167 7.58984 14.2167H10.4565C10.7982 14.2167 11.0815 14.5 11.0815 14.8417C11.0815 15.1833 10.8065 15.4667 10.4565 15.4667Z" fill="#223B77"/>
</svg>
