<svg width="12" height="16" viewBox="0 0 12 16" fill="none" xmlns="http://www.w3.org/2000/svg">
<path d="M5.69115 16.0003C4.1595 16.0003 2.71043 15.6023 1.61425 14.8665C0.570617 14.1683 0 13.2147 0 12.1861C0 11.1575 0.578125 10.2115 1.61425 9.52075C3.85917 8.01913 7.50812 8.01913 9.75305 9.52075C10.0083 9.69344 10.0834 10.0463 9.91072 10.3016C9.73803 10.5644 9.38515 10.632 9.12987 10.4593C7.26035 9.21292 4.10694 9.21292 2.23742 10.4593C1.51664 10.9398 1.12622 11.5479 1.12622 12.1861C1.12622 12.8243 1.51664 13.4475 2.23742 13.928C3.1459 14.5362 4.36973 14.8665 5.68365 14.8665C5.99148 14.8665 6.24676 15.1218 6.24676 15.4296C6.24676 15.7375 5.99899 16.0003 5.69115 16.0003Z" fill="white"/>
<path d="M5.81773 7.78592C5.7952 7.78592 5.78019 7.78592 5.75766 7.78592C5.72012 7.77841 5.66756 7.77841 5.62252 7.78592C3.44516 7.71835 1.80088 6.0065 1.80088 3.89671C1.79338 2.86059 2.19881 1.88454 2.93461 1.14874C3.67041 0.412947 4.64646 0 5.69009 0C7.83741 0 9.5868 1.74939 9.5868 3.89671C9.5868 6.0065 7.94252 7.71084 5.84025 7.78592C5.83274 7.78592 5.82524 7.78592 5.81773 7.78592ZM5.69009 1.12622C4.94679 1.12622 4.25604 1.41903 3.73047 1.93709C3.21241 2.46266 2.9271 3.15341 2.9271 3.88921C2.9271 5.39083 4.09837 6.60715 5.59248 6.65219C5.63753 6.64469 5.73514 6.64469 5.83274 6.65219C7.31184 6.58462 8.46059 5.37581 8.46059 3.88921C8.46059 2.37257 7.21424 1.12622 5.69009 1.12622Z" fill="white"/>
<path d="M9.07873 15.7672C8.7709 15.7672 8.51562 15.5119 8.51562 15.2041V12.2008C8.51562 11.893 8.7709 11.6377 9.07873 11.6377C9.38657 11.6377 9.64184 11.893 9.64184 12.2008V15.2041C9.64184 15.5119 9.38657 15.7672 9.07873 15.7672Z" fill="white"/>
<path d="M10.5781 14.2659H7.57483C7.26699 14.2659 7.01172 14.0106 7.01172 13.7028C7.01172 13.3949 7.26699 13.1396 7.57483 13.1396H10.5781C10.8859 13.1396 11.1412 13.3949 11.1412 13.7028C11.1412 14.0106 10.8859 14.2659 10.5781 14.2659Z" fill="white"/>
</svg>
