<svg width="16" height="16" viewBox="0 0 16 16" fill="none" xmlns="http://www.w3.org/2000/svg">
<path d="M7.9986 15.1666C7.8386 15.1666 7.6786 15.1466 7.52527 15.1C4.06527 14.1466 1.55859 10.9133 1.55859 7.40661V4.47994C1.55859 3.73327 2.0986 2.92664 2.79193 2.63997L6.50527 1.11995C7.47194 0.726618 8.53192 0.726618 9.49192 1.11995L13.2053 2.63997C13.8986 2.92664 14.4386 3.73327 14.4386 4.47994V7.40661C14.4386 10.9066 11.9253 14.14 8.47192 15.1C8.31859 15.1466 8.1586 15.1666 7.9986 15.1666ZM7.9986 1.83329C7.6186 1.83329 7.24525 1.90663 6.88525 2.0533L3.17194 3.57328C2.85194 3.70661 2.55859 4.13994 2.55859 4.48661V7.41329C2.55859 10.4733 4.7586 13.3 7.79193 14.14C7.92526 14.18 8.07193 14.18 8.20526 14.14C11.2386 13.3 13.4386 10.4733 13.4386 7.41329V4.48661C13.4386 4.13994 13.1453 3.70661 12.8253 3.57328L9.11194 2.0533C8.75194 1.90663 8.3786 1.83329 7.9986 1.83329Z" fill="white"/>
<path d="M8.0013 8.83341C6.98797 8.83341 6.16797 8.01341 6.16797 7.00008C6.16797 5.98675 6.98797 5.16675 8.0013 5.16675C9.01464 5.16675 9.83464 5.98675 9.83464 7.00008C9.83464 8.01341 9.01464 8.83341 8.0013 8.83341ZM8.0013 6.16675C7.5413 6.16675 7.16797 6.54008 7.16797 7.00008C7.16797 7.46008 7.5413 7.83341 8.0013 7.83341C8.4613 7.83341 8.83464 7.46008 8.83464 7.00008C8.83464 6.54008 8.4613 6.16675 8.0013 6.16675Z" fill="white"/>
<path d="M8 10.8333C7.72667 10.8333 7.5 10.6066 7.5 10.3333V8.33325C7.5 8.05992 7.72667 7.83325 8 7.83325C8.27333 7.83325 8.5 8.05992 8.5 8.33325V10.3333C8.5 10.6066 8.27333 10.8333 8 10.8333Z" fill="white"/>
</svg>
