<svg width="16" height="16" viewBox="0 0 16 16" fill="none" xmlns="http://www.w3.org/2000/svg">
<path d="M7.99885 15.0868C7.55219 15.0868 7.09885 14.9868 6.74552 14.7801L3.07885 12.6668C1.58552 11.6601 1.49219 11.5068 1.49219 9.92678V6.07345C1.49219 4.49345 1.57885 4.34011 3.04552 3.34678L6.73885 1.21345C7.43885 0.806781 8.53885 0.806781 9.23885 1.21345L12.9189 3.33345C14.4122 4.34011 14.5055 4.49345 14.5055 6.07345V9.92011C14.5055 11.5001 14.4189 11.6534 12.9522 12.6468L9.25885 14.7801C8.89885 14.9868 8.44552 15.0868 7.99885 15.0868ZM7.99885 1.91345C7.71885 1.91345 7.44552 1.96678 7.25219 2.08011L3.58552 4.20011C2.49885 4.93345 2.49885 4.93345 2.49885 6.07345V9.92011C2.49885 11.0601 2.49885 11.0601 3.61219 11.8134L7.25219 13.9134C7.64552 14.1401 8.35885 14.1401 8.75219 13.9134L12.4189 11.7934C13.4989 11.0601 13.4989 11.0601 13.4989 9.92011V6.07345C13.4989 4.93345 13.4989 4.93345 12.3855 4.18011L8.74552 2.08011C8.55219 1.96678 8.27885 1.91345 7.99885 1.91345Z" fill="white"/>
<path d="M8 10.5C6.62 10.5 5.5 9.38 5.5 8C5.5 6.62 6.62 5.5 8 5.5C9.38 5.5 10.5 6.62 10.5 8C10.5 9.38 9.38 10.5 8 10.5ZM8 6.5C7.17333 6.5 6.5 7.17333 6.5 8C6.5 8.82667 7.17333 9.5 8 9.5C8.82667 9.5 9.5 8.82667 9.5 8C9.5 7.17333 8.82667 6.5 8 6.5Z" fill="white"/>
</svg>
